<?xml version="1.0" encoding="utf-8"?>
<!-- Generator: Adobe Illustrator 16.0.0, SVG Export Plug-In . SVG Version: 6.00 Build 0)  -->
<!DOCTYPE svg PUBLIC "-//W3C//DTD SVG 1.1//EN" "http://www.w3.org/Graphics/SVG/1.1/DTD/svg11.dtd">
<svg version="1.1" id="Layer_1" xmlns="http://www.w3.org/2000/svg" xmlns:xlink="http://www.w3.org/1999/xlink" x="0px" y="0px"
	 width="137.798px" height="20.463px" viewBox="52.634 5.897 137.798 20.463" enable-background="new 52.634 5.897 137.798 20.463"
	 xml:space="preserve">
<g id="Layer_2_1_" display="none">
	<rect x="-90" y="-144.5" display="inline" stroke="#FFFFFF" stroke-miterlimit="10" width="420" height="306"/>
</g>
<g id="Layer_2" display="none">
</g>
<g id="Layer_1_1_">
	<g>
		<path fill="#FFFFFF" d="M52.634,8.658c0-0.704,0.345-1.249,1.155-1.249h3.806c3.094,0,4.715,2.317,4.715,4.425
			c0,2.032-1.007,3.593-2.431,4.062v0.054c2.112,0.233,3.781,2.136,3.781,4.584c0,2.914-2.038,5.414-5.721,5.414h-4.15
			c-0.81,0-1.155-0.548-1.155-1.249V8.658z M54.795,15.246h2.456c1.843,0,2.898-1.302,2.898-2.995c0-1.667-0.909-2.865-2.823-2.865
			h-2.531V15.246z M54.795,23.969h3.044c2.113,0,3.659-1.38,3.659-3.437c0-1.902-1.3-3.412-3.56-3.412h-3.144L54.795,23.969
			L54.795,23.969z"/>
		<path fill="#FFFFFF" d="M66.512,19.906c0,2.37,1.424,4.218,3.854,4.218c2.872,0,3.61-1.873,4.42-1.873
			c0.394,0,0.786,0.365,0.786,1.018c0,1.119-2.676,2.836-5.229,2.836c-4.174,0-5.992-3.41-5.992-7.082
			c0-3.748,2.209-7.082,5.869-7.082c3.559,0,5.623,3.412,5.623,6.742c0,0.809-0.271,1.227-1.202,1.227h-8.127L66.512,19.906
			L66.512,19.906z M73.684,18.188c0-1.979-1.082-4.271-3.462-4.271c-2.675-0.104-3.633,2.161-3.707,4.271H73.684z"/>
		<path fill="#FFFFFF" d="M78.598,19.906c0,2.37,1.424,4.218,3.854,4.218c2.873,0,3.608-1.873,4.419-1.873
			c0.395,0,0.786,0.365,0.786,1.018c0,1.119-2.677,2.836-5.229,2.836c-4.175,0-5.99-3.41-5.99-7.082
			c0-3.748,2.209-7.082,5.867-7.082c3.561,0,5.623,3.412,5.623,6.742c0,0.809-0.271,1.227-1.203,1.227h-8.129v-0.003H78.598z
			 M85.768,18.188c0-1.979-1.08-4.271-3.463-4.271c-2.676-0.104-3.634,2.161-3.707,4.271H85.768z"/>
		<path fill="#FFFFFF" d="M88.966,13.163c0-0.754,0.417-1.223,1.081-1.223c0.662,0,1.08,0.469,1.08,1.223v0.547l0.049,0.053
			c0.958-1.303,2.309-1.822,3.609-1.822c2.015,0,4.543,1.354,4.543,5.26v7.681c0,0.757-0.416,1.224-1.08,1.224
			c-0.662,0-1.08-0.467-1.08-1.224v-7.55c0-2.422-1.596-3.411-3.021-3.411c-1.424,0-3.02,0.989-3.02,3.411v7.55
			c0,0.757-0.417,1.224-1.08,1.224c-0.664,0-1.081-0.467-1.081-1.224V13.163L88.966,13.163z"/>
		<path fill="#FFFFFF" d="M99.461,10.091c-0.123-0.339-0.172-0.599-0.172-0.964c0-1.093,0.909-1.875,1.891-1.875
			c0.834,0,1.352,0.573,1.67,1.275l3.807,10.832l3.806-10.832c0.319-0.702,0.835-1.275,1.67-1.275c0.981,0,1.892,0.783,1.892,1.875
			c0,0.365-0.049,0.625-0.172,0.964l-5.377,14.502c-0.32,0.834-0.738,1.51-1.817,1.51c-1.081,0-1.497-0.676-1.817-1.51
			L99.461,10.091z"/>
		<path fill="#FFFFFF" d="M115.747,20.271c0.247,1.849,1.692,2.707,3.338,2.707c1.817,0,3.071-1.511,4.004-1.511
			c0.761,0,1.448,0.808,1.448,1.615c0,1.614-3.143,3.176-5.771,3.176c-3.978,0-6.629-3.071-6.629-7.212
			c0-3.801,2.604-7.265,6.336-7.265c3.829,0,6.36,3.696,6.36,6.821c0,1.119-0.47,1.668-1.547,1.668H115.747z M121.295,17.772
			c-0.195-1.643-1.178-2.865-2.822-2.865c-1.572,0-2.627,1.275-2.799,2.865H121.295z"/>
		<path fill="#FFFFFF" d="M126.034,13.813c0-1.248,0.933-1.875,1.817-1.875c0.934,0,1.717,0.364,1.717,1.562h0.052
			c0.662-1.042,1.375-1.562,2.479-1.562c0.859,0,1.719,0.651,1.719,2.004c0,1.224-1.055,1.303-2.112,1.822
			c-1.054,0.521-2.136,1.017-2.136,2.502v5.754c0,1.25-0.736,2.082-1.768,2.082s-1.769-0.832-1.769-2.082V13.813L126.034,13.813z"/>
		<path fill="#FFFFFF" d="M137.967,8.372c0,1.172-0.883,2.162-1.988,2.162c-1.056,0-1.988-1.017-1.988-2.162
			c0-1.068,0.934-2.057,1.988-2.057C137.034,6.315,137.967,7.277,137.967,8.372z M134.21,14.022c0-1.25,0.737-2.084,1.767-2.084
			c1.033,0,1.768,0.834,1.768,2.084v9.998c0,1.25-0.732,2.082-1.768,2.082c-1.028,0-1.767-0.832-1.767-2.082V14.022z"/>
		<path fill="#FFFFFF" d="M140.52,15.376h-0.785c-0.957,0-1.547-0.626-1.547-1.641c0-0.937,0.66-1.639,1.547-1.639h0.785v-1.929
			c0-2.76,1.547-4.271,3.709-4.271c1.25,0,2.455,0.392,2.455,1.693c0,1.093-0.467,1.588-1.449,1.588c-0.588,0-1.178,0-1.178,1.379
			v1.537h1.104c1.056,0,1.791,0.442,1.791,1.64c0,1.173-0.763,1.641-1.791,1.641h-1.104v8.645c0,1.252-0.736,2.084-1.769,2.084
			s-1.769-0.832-1.769-2.084V15.376L140.52,15.376z"/>
		<path fill="#FFFFFF" d="M151.365,8.372c0,1.172-0.883,2.162-1.988,2.162c-1.055,0-1.988-1.017-1.988-2.162
			c0-1.068,0.935-2.057,1.988-2.057C150.434,6.314,151.365,7.277,151.365,8.372z M147.609,14.022c0-1.25,0.736-2.084,1.767-2.084
			c1.034,0,1.769,0.834,1.769,2.084v9.998c0,1.25-0.733,2.082-1.769,2.082c-1.03,0-1.767-0.832-1.767-2.082V14.022z"/>
		<path fill="#FFFFFF" d="M155.957,20.271c0.245,1.849,1.693,2.707,3.339,2.707c1.817,0,3.07-1.511,4.002-1.511
			c0.763,0,1.45,0.808,1.45,1.615c0,1.614-3.145,3.176-5.771,3.176c-3.978,0-6.629-3.071-6.629-7.212
			c0-3.801,2.604-7.265,6.336-7.265c3.828,0,6.357,3.696,6.357,6.821c0,1.119-0.466,1.668-1.546,1.668H155.957z M161.507,17.772
			c-0.196-1.643-1.18-2.865-2.823-2.865c-1.572,0-2.627,1.275-2.8,2.865H161.507z"/>
	</g>
	<g>
		<path fill="#FFFFFF" d="M183.486,25.763c0-0.33,0.269-0.598,0.599-0.598s0.601,0.268,0.601,0.598c0,0.331-0.271,0.598-0.601,0.598
			C183.755,26.362,183.486,26.094,183.486,25.763z"/>
		<path fill="#FFFFFF" d="M181.648,21.677c0,0.275-0.217,0.521-0.217,0.873c0,0.629,0.56,0.93,1.127,0.93
			c0.547,0,1.111-0.332,1.111-0.93c0-0.275-0.23-0.691-0.23-0.822c0-0.259,0.224-0.475,0.482-0.475c0.568,0,0.762,0.952,0.762,1.35
			c0,1.191-0.978,1.979-2.125,1.979c-1.121,0-2.142-0.813-2.142-1.979c0-0.437,0.162-1.35,0.7-1.35
			C181.348,21.253,181.648,21.414,181.648,21.677z"/>
		<path fill="#FFFFFF" d="M182.559,17.073c1.149,0,2.127,0.791,2.127,1.979s-0.979,1.979-2.127,1.979
			c-1.119,0-2.141-0.813-2.141-1.979S181.438,17.073,182.559,17.073z M182.559,19.926c0.529,0,1.112-0.274,1.112-0.874
			c0-0.599-0.583-0.874-1.112-0.874c-0.526,0-1.127,0.27-1.127,0.874C181.432,19.657,182.031,19.926,182.559,19.926z"/>
		<path fill="#FFFFFF" d="M181.08,16.606c-0.369,0-0.614-0.231-0.614-0.554c0-0.284,0.153-0.469,0.414-0.508
			c-0.292-0.267-0.462-0.621-0.462-1.026c0-0.461,0.191-0.853,0.561-1.143c-0.352-0.307-0.561-0.79-0.561-1.167
			c0-0.897,0.521-1.511,1.488-1.511h2.117c0.369,0,0.613,0.229,0.613,0.553s-0.244,0.553-0.613,0.553H182.1
			c-0.445,0-0.76,0.246-0.76,0.644c0,0.407,0.314,0.651,0.76,0.651h1.924c0.369,0,0.613,0.23,0.613,0.553s-0.244,0.553-0.613,0.553
			H182.1c-0.445,0-0.76,0.247-0.76,0.645c0,0.452,0.314,0.651,0.76,0.651h1.924c0.369,0,0.613,0.229,0.613,0.553
			c0,0.321-0.244,0.554-0.613,0.554H181.08z"/>
	</g>
	<path fill="#FFFFFF" d="M176.607,5.897c-1.033,0-1.769,0.834-1.769,2.083v5.104c-0.937-0.86-2.138-1.302-3.366-1.302
		c-3.805,0-5.693,3.775-5.693,7.421c0,3.541,2.257,7.057,5.818,7.057c1.201,0,2.577-0.573,3.241-1.72
		c0.222,0.991,0.785,1.562,1.769,1.562c1.031,0,1.767-0.832,1.767-2.084V7.981C178.374,6.732,177.639,5.897,176.607,5.897z
		 M173.607,19.157l1.156,3.064l-2.697-1.949l-2.699,1.949l1.158-3.064l-2.362-1.706h3.006l0.897-2.384l0.899,2.384h3.005
		L173.607,19.157z"/>
	<rect x="186.199" y="6.323" display="none" fill="#FFFFFF" width="8.435" height="4.799"/>
	<text transform="matrix(1 0 0 1 186.1992 8.4307)" fill="#FFFFFF" font-family="'Helvetica-Bold'" font-size="2.9318">TM</text>
</g>
</svg>
